<!--?xml version="1.0" standalone="no"?-->
              <svg id="sw-js-blob-svg" viewBox="0 0 100 100" xmlns="http://www.w3.org/2000/svg" version="1.1">
                    <defs> 
                        <linearGradient id="sw-gradient" x1="0" x2="1" y1="1" y2="0">
                            <stop id="stop1" stop-color="rgba(30, 30, 30, 1)" offset="0%"></stop>
                            <stop id="stop2" stop-color="rgba(144.263, 144.263, 144.263, 1)" offset="100%"></stop>
                        </linearGradient>
                    </defs>
                <path fill="url(#sw-gradient)" d="M11.3,-17.7C13.7,-13.8,14,-9.2,16.9,-4.5C19.9,0.2,25.4,5.1,27.1,11.6C28.9,18.1,26.8,26.1,21.7,31.5C16.5,36.9,8.3,39.7,1.8,37.1C-4.6,34.6,-9.2,26.8,-13.9,21.2C-18.7,15.7,-23.6,12.5,-25.4,8C-27.1,3.6,-25.7,-2.2,-22.7,-6.2C-19.8,-10.2,-15.3,-12.6,-11.3,-16C-7.3,-19.4,-3.6,-23.8,0.4,-24.3C4.4,-24.9,8.9,-21.6,11.3,-17.7Z" width="100%" height="100%" transform="translate(50 50)" stroke-width="0" style="transition: all 0.3s ease 0s;" stroke="url(#sw-gradient)"></path>
              </svg>